<svg width="109" height="26" viewBox="0 0 109 26" fill="none" xmlns="http://www.w3.org/2000/svg">
<g clip-path="url(#clip0_2_1534)">
<path fill-rule="evenodd" clip-rule="evenodd" d="M41.8478 5.79065C44.3607 5.79065 46.6794 7.13277 46.3622 10.4777C45.9776 14.4529 43.8147 16.6525 40.402 16.662H37.42C36.9912 16.662 36.7836 17.0065 36.6721 17.7126L36.0953 21.3225C36.0088 21.8677 35.7242 22.1365 35.3051 22.1365H32.5307C32.0885 22.1365 31.9347 21.8582 32.0328 21.2354L34.3226 6.76742C34.4361 6.05567 34.7072 5.79065 35.2013 5.79065H41.8421H41.8478ZM37.3296 13.5367H39.5887C41.0019 13.4837 41.9401 12.5202 42.0343 10.7824C42.092 9.70911 41.3556 8.94056 40.1847 8.94623L38.0583 8.9557L37.3296 13.5367ZM53.9047 21.0291C54.1585 20.8019 54.4161 20.6846 54.3796 20.9647L54.2892 21.6348C54.2431 21.985 54.3834 22.1706 54.7141 22.1706H57.1789C57.5942 22.1706 57.7961 22.0059 57.898 21.3736L59.4169 11.9882C59.4938 11.5169 59.3765 11.286 59.0131 11.286H56.3022C56.058 11.286 55.9388 11.4204 55.8754 11.7876L55.7754 12.3649C55.7235 12.6659 55.5831 12.7189 55.4524 12.4161C54.9929 11.3446 53.8201 10.8638 52.1839 10.9017C48.3829 10.9793 45.82 13.8206 45.5451 17.4627C45.3336 20.2795 47.3831 22.4924 50.0863 22.4924C52.0474 22.4924 52.9241 21.9245 53.9124 21.0348L53.9047 21.0291ZM51.8398 19.5848C50.2036 19.5848 49.0635 18.2994 49.3 16.7245C49.5364 15.1495 51.0669 13.8642 52.703 13.8642C54.3392 13.8642 55.4793 15.1495 55.2428 16.7245C55.0063 18.2994 53.4778 19.5848 51.8398 19.5848ZM64.2408 11.2557H61.7413C61.2261 11.2557 61.0165 11.6343 61.1799 12.0999L64.2831 21.0461L61.2395 25.3034C60.9838 25.6593 61.1819 25.983 61.5414 25.983H64.3504C64.5141 26.0016 64.6798 25.9735 64.8277 25.9021C64.9757 25.8306 65.0996 25.7187 65.1848 25.5798L74.7287 12.1018C75.0229 11.6873 74.8845 11.2519 74.4019 11.2519H71.7429C71.2872 11.2519 71.1046 11.4298 70.8431 11.8027L66.8632 17.4817L65.0848 11.7895C64.981 11.445 64.7214 11.2557 64.2427 11.2557H64.2408Z" fill="#113984"/>
<path fill-rule="evenodd" clip-rule="evenodd" d="M84.6569 5.79065C87.1698 5.79065 89.4885 7.13278 89.1713 10.4777C88.7868 14.4529 86.6238 16.6525 83.2111 16.662H80.231C79.8023 16.662 79.5946 17.0065 79.4831 17.7126L78.9063 21.3225C78.8198 21.8677 78.5353 22.1365 78.1161 22.1365H75.3418C74.8995 22.1365 74.7457 21.8582 74.8438 21.2354L77.1375 6.76364C77.2509 6.05188 77.522 5.78687 78.0161 5.78687H84.6569V5.79065ZM80.1387 13.5367H82.3978C83.811 13.4837 84.7492 12.5202 84.8434 10.7824C84.9011 9.70911 84.1647 8.94056 82.9939 8.94624L80.8674 8.95571L80.1387 13.5367ZM96.7138 21.0291C96.9676 20.8019 97.2252 20.6846 97.1887 20.9647L97.0983 21.6348C97.0522 21.985 97.1925 22.1706 97.5232 22.1706H99.988C100.403 22.1706 100.605 22.0059 100.707 21.3736L102.226 11.9883C102.303 11.5169 102.186 11.286 101.822 11.286H99.1151C98.871 11.286 98.7518 11.4204 98.6883 11.7876L98.5883 12.365C98.5364 12.6659 98.3961 12.7189 98.2653 12.4161C97.8058 11.3446 96.633 10.8638 94.9969 10.9017C91.1958 10.9793 88.6329 13.8207 88.358 17.4627C88.1465 20.2795 90.196 22.4924 92.8993 22.4924C94.8603 22.4924 95.7371 21.9245 96.7253 21.0348L96.7138 21.0291ZM94.6508 19.5848C93.0146 19.5848 91.8745 18.2994 92.111 16.7245C92.3475 15.1495 93.8779 13.8642 95.5141 13.8642C97.1502 13.8642 98.2903 15.1495 98.0538 16.7245C97.8174 18.2994 96.287 19.5848 94.6508 19.5848ZM106.019 22.1857H103.174C103.124 22.1879 103.075 22.1793 103.029 22.1605C102.984 22.1417 102.943 22.1132 102.909 22.077C102.876 22.0409 102.851 21.9979 102.837 21.9513C102.822 21.9046 102.819 21.8554 102.826 21.8071L105.325 6.21657C105.349 6.11017 105.409 6.01485 105.495 5.94611C105.581 5.87737 105.688 5.83926 105.798 5.83798H108.644C108.693 5.8358 108.743 5.84441 108.788 5.86319C108.834 5.88197 108.875 5.91046 108.908 5.94663C108.941 5.9828 108.966 6.02575 108.981 6.07241C108.995 6.11907 108.999 6.1683 108.992 6.21657L106.492 21.8071C106.469 21.9142 106.41 22.0104 106.324 22.0799C106.238 22.1494 106.131 22.188 106.019 22.1895V22.1857Z" fill="#009EE3"/>
<path fill-rule="evenodd" clip-rule="evenodd" d="M9.51044 6.12H16.9587C20.9578 6.12 22.4632 8.1133 22.2306 11.0417C21.8461 15.8764 18.8775 18.5512 14.94 18.5512H12.952C12.4117 18.5512 12.0483 18.9033 11.9022 19.8573L11.0582 25.4037C11.0024 25.7634 10.8101 25.9716 10.5218 26H5.84205C5.40177 26 5.24604 25.6687 5.36139 24.9513L8.21459 7.1706C8.3261 6.45884 8.72216 6.12 9.51044 6.12Z" fill="#009EE3"/>
<path fill-rule="evenodd" clip-rule="evenodd" d="M4.85241 0H12.3084C14.4079 0 16.8996 0.0662541 18.5646 1.51438C19.6779 2.48169 20.2623 4.02068 20.1278 5.67892C19.6702 11.284 16.2652 14.4245 11.697 14.4245H8.02091C7.39413 14.4245 6.98077 14.8333 6.80388 15.9388L5.7772 22.375C5.7099 22.7914 5.52725 23.0375 5.20041 23.0678H0.599539C0.0900408 23.0678 -0.0906887 22.6892 0.0419732 21.8525L3.34891 1.22286C3.48157 0.393737 3.94493 0 4.85241 0Z" fill="#113984"/>
<path fill-rule="evenodd" clip-rule="evenodd" d="M6.9126 15.2859L8.21422 7.17066C8.32766 6.45891 8.72372 6.11816 9.512 6.11816H16.9603C18.1927 6.11816 19.1906 6.30746 19.9711 6.65766C19.2232 11.6475 15.9451 14.4189 11.6538 14.4189H7.98351C7.49131 14.4208 7.12986 14.6631 6.9126 15.2859Z" fill="#172C70"/>
</g>
<defs>
<clipPath id="clip0_2_1534">
<rect width="109" height="26" fill="white"/>
</clipPath>
</defs>
</svg>
