<svg width="105" height="30" viewBox="0 0 105 30" fill="none" xmlns="http://www.w3.org/2000/svg">
<path d="M25.2143 10.0747H2.15009C1.5807 10.0747 1.11914 10.5363 1.11914 11.1057V13.875H26.2453V11.1057C26.2452 10.5363 25.7837 10.0747 25.2143 10.0747Z" fill="#FFB125"/>
<path d="M16.8407 4.34926L14.7521 25.4939C14.6996 26.0251 14.2265 26.4131 13.6953 26.3606L3.11221 25.3152C2.58104 25.2627 2.193 24.7896 2.24548 24.2584L4.33416 3.11385C4.38664 2.58269 4.85975 2.19465 5.39092 2.24712L15.974 3.29256C16.5051 3.34498 16.8932 3.81809 16.8407 4.34926Z" fill="#B6FA4C"/>
<path d="M15.9742 3.29256L5.39111 2.24712C4.85995 2.19465 4.38683 2.58269 4.33436 3.11385L4.14697 5.0109C4.30573 4.93026 4.48823 4.89169 4.67854 4.91049L15.2616 5.95592C15.7928 6.0084 16.1808 6.48151 16.1284 7.01268L14.2271 26.2603C14.5113 26.1159 14.7186 25.8348 14.7522 25.494L16.8409 4.34937C16.8934 3.81815 16.5053 3.34504 15.9742 3.29256Z" fill="#A8E83A"/>
<path d="M5.45578 6.11212L3.93206 21.5377C3.91027 21.7585 4.0142 21.9737 4.2025 22.091C4.72136 22.4145 5.12314 22.8998 5.34392 23.4696C5.4233 23.6744 5.61287 23.8156 5.8314 23.8372L11.3176 24.3792C11.5362 24.4008 11.7498 24.2993 11.8676 24.114C12.1956 23.5985 12.6845 23.2011 13.2567 22.9854C13.4643 22.9071 13.6084 22.7165 13.6301 22.4957L15.1539 7.07013C15.1756 6.84935 15.0717 6.63415 14.8834 6.51678C14.3646 6.19329 13.9628 5.70799 13.742 5.1382C13.6626 4.93345 13.473 4.79217 13.2545 4.77056L7.76828 4.22864C7.54975 4.20703 7.33616 4.30848 7.21832 4.49379C6.89035 5.00933 6.40137 5.40668 5.82922 5.6224C5.62166 5.70069 5.47762 5.89135 5.45578 6.11212Z" fill="#77DD00"/>
<path d="M14.8836 6.51678C14.3648 6.19329 13.963 5.70799 13.7422 5.1382C13.6628 4.9334 13.4733 4.79217 13.2547 4.77056L7.76851 4.22864C7.54997 4.20703 7.33638 4.30848 7.21849 4.49379C6.89051 5.00933 6.40154 5.40668 5.82939 5.6224C5.62177 5.70069 5.47773 5.89135 5.45595 6.11212L5.39795 6.69933L12.5066 7.3796C12.7251 7.40121 12.9147 7.54244 12.9941 7.74724C13.2148 8.31697 13.6166 8.80233 14.1355 9.12582C14.3238 9.2432 14.4277 9.4584 14.4059 9.67918L13.0844 23.0577C13.141 23.032 13.1984 23.0075 13.2569 22.9855C13.4645 22.9072 13.6085 22.7165 13.6303 22.4957L15.154 7.07019C15.1759 6.84935 15.0719 6.63415 14.8836 6.51678Z" fill="#73CC00"/>
<path d="M25.8144 7.49954L13.849 25.0576C13.5485 25.4987 12.9472 25.6126 12.5062 25.312L3.71819 19.3232C3.27715 19.0227 3.16322 18.4214 3.46378 17.9804L15.4293 0.422288C15.7298 -0.0187512 16.331 -0.132675 16.7721 0.167884L25.5601 6.15671C26.0011 6.45727 26.115 7.05845 25.8144 7.49954Z" fill="#B6FA4C"/>
<path d="M25.56 6.15673L16.772 0.167899C16.3309 -0.13266 15.7297 -0.0187933 15.4291 0.422303L14.4057 1.92418C14.4945 1.95194 14.5808 1.99287 14.6617 2.04799L23.4497 8.03682C23.8908 8.33738 24.0047 8.93861 23.7041 9.37965L12.7622 25.4359C13.1577 25.5596 13.6035 25.4179 13.849 25.0577L25.8144 7.49956C26.1149 7.05846 26.001 6.45729 25.56 6.15673Z" fill="#A8E83A"/>
<path d="M14.9769 3.59144L6.24778 16.4005C6.12282 16.5839 6.11097 16.8225 6.21996 17.0158C6.5204 17.5483 6.64047 18.1668 6.56121 18.7728C6.53276 18.9905 6.63145 19.2054 6.81291 19.329L11.3686 22.4336C11.5501 22.5573 11.7861 22.5705 11.9784 22.4644C12.5134 22.169 13.1329 22.0546 13.7384 22.1394C13.9582 22.1701 14.176 22.0718 14.3009 21.8885L23.03 9.07945C23.155 8.89609 23.1668 8.65744 23.0578 8.46419C22.7573 7.93165 22.6373 7.31317 22.7165 6.70728C22.745 6.48955 22.6463 6.27469 22.4648 6.15105L17.9091 3.04642C17.7277 2.92273 17.4916 2.90945 17.2993 3.01562C16.7644 3.31094 16.1449 3.42539 15.5393 3.3406C15.3196 3.30974 15.1018 3.40808 14.9769 3.59144Z" fill="#77DD00"/>
<path d="M23.0574 8.46417C22.7569 7.93163 22.6369 7.31315 22.7161 6.70726C22.7446 6.48953 22.6459 6.27467 22.4644 6.15098L17.9087 3.04641C17.7273 2.92277 17.4912 2.90943 17.2989 3.0156C16.764 3.31092 16.1444 3.42537 15.5389 3.34053C15.3192 3.30978 15.1014 3.40806 14.9764 3.59142L14.6126 4.12523L20.3062 7.96313C20.4876 8.08682 20.5864 8.30162 20.5579 8.51936C20.4787 9.12524 20.5987 9.74372 20.8991 10.2763C21.0081 10.4695 20.9963 10.7082 20.8713 10.8915L13.2227 22.1155C13.3941 22.1079 13.5666 22.1154 13.7381 22.1394C13.9578 22.1702 14.1756 22.0719 14.3006 21.8885L23.0296 9.07943C23.1546 8.89607 23.1664 8.65742 23.0574 8.46417Z" fill="#73CC00"/>
<path d="M15.9759 14.6797C17.7025 14.6797 19.1022 13.28 19.1022 11.5534C19.1022 9.82676 17.7025 8.42706 15.9759 8.42706C14.2493 8.42706 12.8496 9.82676 12.8496 11.5534C12.8496 13.28 14.2493 14.6797 15.9759 14.6797Z" fill="#B6FA4C"/>
<path d="M25.5715 29.4294H1.48687C0.665725 29.4294 0 28.7637 0 27.9425V13.2282C0 12.4071 0.665668 11.7413 1.48687 11.7413H25.5715C26.3926 11.7413 27.0583 12.407 27.0583 13.2282V27.9425C27.0583 28.7637 26.3927 29.4294 25.5715 29.4294Z" fill="#FFB125"/>
<path d="M25.5717 11.7413H22.8667C23.6878 11.7413 24.3536 12.4071 24.3536 13.2282V27.9425C24.3536 28.7637 23.6878 29.4294 22.8667 29.4294H25.5717C26.3928 29.4294 27.0585 28.7637 27.0585 27.9425V13.2282C27.0585 12.4071 26.3928 11.7413 25.5717 11.7413Z" fill="#FF901D"/>
<path d="M27.9431 17.7432H22.5224C20.9527 17.7432 19.6802 19.0156 19.6802 20.5853C19.6802 22.155 20.9527 23.4275 22.5224 23.4275H27.9431C28.2406 23.4275 28.4818 23.1863 28.4818 22.8888V18.2819C28.4818 17.9844 28.2406 17.7432 27.9431 17.7432Z" fill="#FF6D3A"/>
<path d="M27.9432 17.7432H25.2286C25.5261 17.7432 25.7673 17.9843 25.7673 18.2819V22.1623C25.7673 22.4796 25.5101 22.7369 25.1928 22.7369H22.5224C21.0696 22.7369 19.8723 21.6467 19.7018 20.24C19.688 20.3532 19.6802 20.4683 19.6802 20.5853C19.6802 22.155 20.9527 23.4275 22.5224 23.4275H25.2285H27.9431C28.2406 23.4275 28.4818 23.1863 28.4818 22.8888V22.1982V18.2819C28.4819 17.9844 28.2407 17.7432 27.9432 17.7432Z" fill="#ED5729"/>
<path d="M25.5715 11.7413H1.48687C0.665725 11.7413 0 12.4071 0 13.2282V14.8576H27.0583V13.2282C27.0583 12.4071 26.3927 11.7413 25.5715 11.7413Z" fill="#FF6D3A"/>
<path d="M26.8045 12.3969C26.751 12.3178 26.6902 12.2441 26.6229 12.1769C26.6221 12.176 26.6213 12.1754 26.6205 12.1746C26.5539 12.1082 26.4811 12.0481 26.4028 11.9953C26.3831 11.9819 26.3629 11.969 26.3425 11.9566C26.3121 11.9381 26.2807 11.9211 26.249 11.9047C26.2284 11.8942 26.2075 11.8841 26.1864 11.8745C25.9989 11.7892 25.7908 11.7413 25.5715 11.7413H22.8667C23.6878 11.7413 24.3534 12.407 24.3534 13.2281V14.8575H27.0584V13.2281C27.0584 12.9715 26.9934 12.7301 26.8789 12.5194C26.8561 12.4774 26.8312 12.4364 26.8045 12.3969Z" fill="#ED5729"/>
<path d="M1.48687 29.4294H25.5715C26.3926 29.4294 27.0583 28.7637 27.0583 27.9425V26.3131H0V27.9425C0 28.7637 0.665668 29.4294 1.48687 29.4294Z" fill="#FF6D3A"/>
<path d="M24.3534 26.3131V27.9425C24.3534 27.9434 24.3534 27.9443 24.3534 27.9451C24.3531 28.0824 24.2382 28.192 24.1008 28.192H1.48687C0.665725 28.192 0 27.5263 0 26.7051V27.9425C0 28.7637 0.665668 29.4294 1.48687 29.4294H22.8665H25.5715C25.6009 29.4294 25.63 29.4283 25.6589 29.4266C25.6679 29.4261 25.6769 29.4253 25.6858 29.4246C25.706 29.423 25.7261 29.4212 25.746 29.4188C25.7559 29.4177 25.7658 29.4164 25.7757 29.4151C25.7955 29.4124 25.8152 29.4092 25.8347 29.4057C25.8434 29.4042 25.8521 29.4028 25.8607 29.4011C25.8884 29.3956 25.9159 29.3896 25.9429 29.3826C25.9429 29.3826 25.943 29.3826 25.9431 29.3826C25.955 29.3796 25.9666 29.376 25.9783 29.3726C26.0371 29.3559 26.0946 29.3361 26.1503 29.3126C26.1725 29.3032 26.1945 29.2933 26.2161 29.2828C26.2378 29.2724 26.2592 29.2615 26.2802 29.25L26.2803 29.25C26.3224 29.2271 26.3632 29.2023 26.4028 29.1756L26.4028 29.1755L26.4029 29.1755C26.4366 29.1527 26.469 29.1284 26.5005 29.103C26.502 29.1018 26.5036 29.1007 26.505 29.0995C26.537 29.0736 26.5679 29.0464 26.5976 29.018C26.6326 28.9845 26.666 28.9495 26.6976 28.9128V28.9127C26.7471 28.8554 26.7923 28.7943 26.8327 28.7298C26.8338 28.728 26.8349 28.7263 26.836 28.7246C26.8508 28.7006 26.8652 28.6764 26.8787 28.6515C26.8787 28.6515 26.8788 28.6514 26.8788 28.6513V28.6513C26.9147 28.5851 26.9457 28.5158 26.9714 28.444C26.9743 28.4358 26.9769 28.4275 26.9798 28.4193C26.986 28.4009 26.9919 28.3824 26.9974 28.3638C27.0002 28.3543 27.0029 28.3448 27.0055 28.3353C27.0106 28.3166 27.0153 28.2976 27.0197 28.2786C27.0217 28.2699 27.0239 28.2612 27.0257 28.2525C27.0315 28.225 27.0368 28.1974 27.0411 28.1695C27.0411 28.1693 27.0411 28.1692 27.0411 28.169C27.0411 28.1689 27.0411 28.1688 27.0411 28.1688C27.0461 28.1361 27.0496 28.103 27.0525 28.0696C27.0532 28.0612 27.0538 28.0527 27.0544 28.0443C27.0567 28.0106 27.0583 27.9768 27.0583 27.9425V26.7052V26.3132L24.3534 26.3131Z" fill="#ED5729"/>
<path d="M22.6239 21.9053C23.3527 21.9053 23.9435 21.3145 23.9435 20.5857C23.9435 19.8568 23.3527 19.266 22.6239 19.266C21.895 19.266 21.3042 19.8568 21.3042 20.5857C21.3042 21.3145 21.895 21.9053 22.6239 21.9053Z" fill="#F2F2F2"/>
<path d="M39.7239 21V7.716H44.7999C46.0479 7.716 46.9719 8.01 47.5719 8.598C48.1719 9.186 48.4719 10.044 48.4719 11.172C48.4719 11.7 48.3879 12.168 48.2199 12.576C48.0639 12.972 47.8479 13.302 47.5719 13.566C47.2959 13.818 46.9719 13.992 46.5999 14.088C46.8759 14.16 47.1459 14.274 47.4099 14.43C47.6859 14.574 47.9379 14.778 48.1659 15.042C48.3939 15.306 48.5739 15.63 48.7059 16.014C48.8379 16.386 48.9039 16.824 48.9039 17.328C48.9039 18.24 48.7479 18.966 48.4359 19.506C48.1359 20.034 47.6919 20.418 47.1039 20.658C46.5279 20.886 45.8319 21 45.0159 21H39.7239ZM41.9379 19.002H44.9439C45.3159 19.002 45.6399 18.936 45.9159 18.804C46.1919 18.672 46.4019 18.462 46.5459 18.174C46.7019 17.874 46.7799 17.466 46.7799 16.95C46.7799 16.542 46.7019 16.2 46.5459 15.924C46.3899 15.648 46.1739 15.438 45.8979 15.294C45.6219 15.138 45.3039 15.06 44.9439 15.06H41.9379V19.002ZM41.9379 13.332H44.8359C45.2799 13.332 45.6399 13.17 45.9159 12.846C46.1919 12.51 46.3359 12.072 46.3479 11.532C46.3599 10.848 46.2099 10.374 45.8979 10.11C45.5979 9.846 45.2259 9.714 44.7819 9.714H41.9379V13.332ZM52.7585 21.108C52.0385 21.108 51.4505 20.892 50.9945 20.46C50.5385 20.028 50.3105 19.434 50.3105 18.678V17.868C50.3105 17.124 50.5625 16.518 51.0665 16.05C51.5825 15.582 52.3685 15.348 53.4245 15.348H56.1785V14.502C56.1785 14.166 56.1185 13.884 55.9985 13.656C55.8785 13.428 55.6625 13.26 55.3505 13.152C55.0385 13.032 54.5645 12.972 53.9285 12.972H51.0125V11.676C51.4565 11.556 51.9785 11.454 52.5785 11.37C53.1785 11.274 53.8925 11.226 54.7205 11.226C55.5125 11.214 56.1845 11.31 56.7365 11.514C57.2885 11.706 57.7025 12.03 57.9785 12.486C58.2665 12.942 58.4105 13.566 58.4105 14.358V21H56.6645L56.2865 19.956C56.2025 20.028 56.0525 20.124 55.8365 20.244C55.6205 20.364 55.3505 20.496 55.0265 20.64C54.7025 20.772 54.3425 20.886 53.9465 20.982C53.5625 21.066 53.1665 21.108 52.7585 21.108ZM53.8385 19.542C53.9945 19.542 54.1685 19.524 54.3605 19.488C54.5645 19.44 54.7685 19.392 54.9725 19.344C55.1765 19.284 55.3625 19.23 55.5305 19.182C55.7105 19.122 55.8545 19.068 55.9625 19.02C56.0825 18.972 56.1545 18.942 56.1785 18.93V16.41L54.0905 16.518C53.5385 16.566 53.1365 16.71 52.8845 16.95C52.6445 17.19 52.5245 17.508 52.5245 17.904V18.3C52.5245 18.6 52.5845 18.846 52.7045 19.038C52.8365 19.218 52.9985 19.344 53.1905 19.416C53.3945 19.488 53.6105 19.53 53.8385 19.542ZM63.4838 21.036C62.8478 21.036 62.3138 20.928 61.8818 20.712C61.4618 20.496 61.1438 20.16 60.9278 19.704C60.7238 19.248 60.6218 18.642 60.6218 17.886V7.266H62.8538V17.58C62.8538 18.012 62.8958 18.348 62.9798 18.588C63.0758 18.828 63.2078 19.002 63.3758 19.11C63.5438 19.206 63.7478 19.272 63.9878 19.308L64.7978 19.416V21.036H63.4838ZM68.1217 21.108C67.4017 21.108 66.8137 20.892 66.3577 20.46C65.9017 20.028 65.6737 19.434 65.6737 18.678V17.868C65.6737 17.124 65.9257 16.518 66.4297 16.05C66.9457 15.582 67.7317 15.348 68.7877 15.348H71.5417V14.502C71.5417 14.166 71.4817 13.884 71.3617 13.656C71.2417 13.428 71.0257 13.26 70.7137 13.152C70.4017 13.032 69.9277 12.972 69.2917 12.972H66.3757V11.676C66.8197 11.556 67.3417 11.454 67.9417 11.37C68.5417 11.274 69.2557 11.226 70.0837 11.226C70.8757 11.214 71.5477 11.31 72.0997 11.514C72.6517 11.706 73.0657 12.03 73.3417 12.486C73.6297 12.942 73.7737 13.566 73.7737 14.358V21H72.0277L71.6497 19.956C71.5657 20.028 71.4157 20.124 71.1997 20.244C70.9837 20.364 70.7137 20.496 70.3897 20.64C70.0657 20.772 69.7057 20.886 69.3097 20.982C68.9257 21.066 68.5297 21.108 68.1217 21.108ZM69.2017 19.542C69.3577 19.542 69.5317 19.524 69.7237 19.488C69.9277 19.44 70.1317 19.392 70.3357 19.344C70.5397 19.284 70.7257 19.23 70.8937 19.182C71.0737 19.122 71.2177 19.068 71.3257 19.02C71.4457 18.972 71.5177 18.942 71.5417 18.93V16.41L69.4537 16.518C68.9017 16.566 68.4997 16.71 68.2477 16.95C68.0077 17.19 67.8877 17.508 67.8877 17.904V18.3C67.8877 18.6 67.9477 18.846 68.0677 19.038C68.1997 19.218 68.3617 19.344 68.5537 19.416C68.7577 19.488 68.9737 19.53 69.2017 19.542ZM75.9851 21V11.352H77.8031L78.2171 12.36C78.6131 12.06 79.0931 11.79 79.6571 11.55C80.2331 11.31 80.8271 11.19 81.4391 11.19C82.1951 11.19 82.7891 11.346 83.2211 11.658C83.6531 11.958 83.9591 12.366 84.1391 12.882C84.3311 13.398 84.4271 13.962 84.4271 14.574V21H82.1951V14.844C82.1951 14.496 82.1291 14.202 81.9971 13.962C81.8651 13.722 81.6791 13.536 81.4391 13.404C81.2111 13.272 80.9291 13.206 80.5931 13.206C80.2811 13.206 79.9871 13.236 79.7111 13.296C79.4471 13.356 79.1951 13.446 78.9551 13.566C78.7151 13.686 78.4691 13.83 78.2171 13.998V21H75.9851ZM90.345 21.108C89.769 21.108 89.235 21.036 88.743 20.892C88.263 20.736 87.843 20.478 87.483 20.118C87.123 19.746 86.841 19.242 86.637 18.606C86.445 17.97 86.349 17.172 86.349 16.212C86.349 15.228 86.439 14.412 86.619 13.764C86.811 13.116 87.081 12.606 87.429 12.234C87.777 11.862 88.197 11.604 88.689 11.46C89.193 11.304 89.763 11.226 90.399 11.226C90.939 11.226 91.485 11.256 92.037 11.316C92.589 11.364 93.141 11.46 93.693 11.604V12.882H91.065C90.489 12.882 90.021 12.972 89.661 13.152C89.301 13.332 89.031 13.662 88.851 14.142C88.671 14.622 88.581 15.312 88.581 16.212C88.581 17.1 88.671 17.778 88.851 18.246C89.031 18.702 89.301 19.014 89.661 19.182C90.033 19.338 90.507 19.416 91.083 19.416H93.837V20.676C93.549 20.76 93.213 20.838 92.829 20.91C92.445 20.97 92.037 21.018 91.605 21.054C91.185 21.09 90.765 21.108 90.345 21.108ZM99.4212 21.09C98.3772 21.09 97.5432 20.946 96.9192 20.658C96.3072 20.37 95.8632 19.872 95.5872 19.164C95.3112 18.444 95.1732 17.448 95.1732 16.176C95.1732 14.88 95.3052 13.878 95.5692 13.17C95.8332 12.45 96.2712 11.946 96.8832 11.658C97.4952 11.37 98.3232 11.226 99.3672 11.226C100.291 11.226 101.029 11.322 101.581 11.514C102.145 11.694 102.553 12.024 102.805 12.504C103.069 12.972 103.201 13.638 103.201 14.502C103.201 15.114 103.081 15.606 102.841 15.978C102.601 16.338 102.253 16.596 101.797 16.752C101.353 16.908 100.825 16.986 100.213 16.986H97.3872C97.4112 17.586 97.4892 18.066 97.6212 18.426C97.7652 18.774 98.0172 19.026 98.3772 19.182C98.7492 19.338 99.2892 19.416 99.9972 19.416H102.913V20.73C102.421 20.826 101.899 20.91 101.347 20.982C100.807 21.054 100.165 21.09 99.4212 21.09ZM97.3692 15.636H99.9972C100.417 15.636 100.723 15.558 100.915 15.402C101.119 15.234 101.221 14.934 101.221 14.502C101.221 14.082 101.161 13.752 101.041 13.512C100.921 13.272 100.723 13.104 100.447 13.008C100.171 12.9 99.8112 12.846 99.3672 12.846C98.8632 12.846 98.4672 12.924 98.1792 13.08C97.8912 13.236 97.6812 13.518 97.5492 13.926C97.4292 14.322 97.3692 14.892 97.3692 15.636Z" fill="black"/>
</svg>
