<svg width="118" height="33" viewBox="0 0 118 33" fill="none" xmlns="http://www.w3.org/2000/svg">
<path d="M37.8726 10.5148L20.4118 27.9756C20.2426 28.1448 19.9684 28.1448 19.7993 27.9756L10.0238 18.2002C9.85469 18.0311 9.85469 17.7568 10.0238 17.5877L27.4846 0.126857C27.6537 -0.0422855 27.928 -0.0422855 28.0971 0.126857L37.8725 9.90229C38.0417 10.0714 38.0417 10.3457 37.8726 10.5148Z" fill="#5CC45C"/>
<path d="M37.8726 9.90229L35.2394 7.26904L17.166 25.3424L19.7993 27.9756C19.9684 28.1448 20.2426 28.1448 20.4118 27.9756L37.8726 10.5148C38.0417 10.3457 38.0417 10.0714 37.8726 9.90229Z" fill="#4EAD4E"/>
<path d="M13.7761 19.0277C14.1571 18.3228 14.1571 17.4652 13.7761 16.7602C13.725 16.6656 13.7398 16.5492 13.8158 16.4731L26.3701 3.9188C26.4462 3.84273 26.5626 3.82796 26.6573 3.87917C27.362 4.26013 28.2197 4.26013 28.9247 3.8791C29.0193 3.82796 29.1358 3.84273 29.2118 3.91873L34.0807 8.78763C34.1568 8.8637 34.1716 8.98015 34.1204 9.07478C33.7393 9.7797 33.7393 10.6373 34.1204 11.3422C34.1715 11.4368 34.1567 11.5533 34.0807 11.6294L21.5264 24.1837C21.4503 24.2598 21.3339 24.2746 21.2392 24.2234C20.5343 23.8425 19.6767 23.8425 18.9719 24.2234C18.8773 24.2746 18.7608 24.2598 18.6847 24.1837L13.8158 19.3148C13.7398 19.2387 13.725 19.1222 13.7761 19.0277Z" fill="#A0E557"/>
<path d="M34.1206 11.3422C33.7395 10.6373 33.7395 9.7797 34.1206 9.07478C34.1717 8.98015 34.1569 8.8637 34.0809 8.78763L31.2774 5.98413C30.7738 6.76631 30.7738 7.7805 31.2774 8.56268L18.4598 21.3802C17.6776 20.8767 16.6634 20.8767 15.8813 21.3802L18.6848 24.1837C18.7609 24.2598 18.8774 24.2745 18.972 24.2234C19.6768 23.8425 20.5344 23.8424 21.2393 24.2234C21.334 24.2746 21.4504 24.2598 21.5265 24.1837L34.0809 11.6294C34.1569 11.5534 34.1717 11.4368 34.1206 11.3422Z" fill="#93CC4A"/>
<path d="M26.466 16.569C27.8566 15.1784 27.8566 12.9237 26.466 11.5331C25.0754 10.1424 22.8207 10.1424 21.4301 11.5331C20.0394 12.9237 20.0394 15.1784 21.4301 16.569C22.8207 17.9596 25.0754 17.9596 26.466 16.569Z" fill="#F3E8D7"/>
<path d="M19.7257 22.5071L25.0982 17.1346C25.7173 16.5155 25.9806 15.7749 25.3614 15.1558C24.3856 13.9441 20.8236 14.9158 19.1338 16.6055C18.3146 17.4247 17.3842 18.3553 16.8715 18.8684C16.6205 19.1194 16.2805 19.2604 15.9212 19.2604H15.9027C15.3099 19.2604 14.6156 18.6864 14.4627 18.1137L14.4624 13.1493L15.3489 12.2627L16.3229 11.2887L20.1914 7.42017C18.5999 7.24182 17.0173 7.14534 16.4034 7.07179C15.7209 6.99 15.1387 7.29585 14.609 7.73404L9.65654 11.6412C8.95763 12.2194 8.45377 12.9985 8.21241 13.873C7.67173 15.8314 6.53286 19.2957 5.81006 20.6733L2.19922 24.2841L8.45058 30.5355L10.1892 28.7969C10.516 28.4701 10.92 28.2313 11.3638 28.1026L14.9949 26.8799C16.1356 26.4886 17.1398 25.7775 17.8878 24.8316L19.7257 22.5071Z" fill="#FCD7C3"/>
<path d="M17.8873 24.8316L19.7251 22.5073L25.0977 17.1347C25.7168 16.5156 25.98 15.775 25.3609 15.1559C25.0022 14.7105 24.294 14.5602 23.4578 14.6321C22.2331 14.7374 21.0918 15.2973 20.2225 16.1665L16.8035 19.5856L14.9656 21.9099C14.2177 22.8559 13.2135 23.5669 12.0728 23.9583L8.44166 25.1809C7.99784 25.3096 7.59372 25.5485 7.26694 25.8753L5.52832 27.6139L8.44997 30.5355L10.1886 28.7969C10.5154 28.4701 10.9194 28.2313 11.3632 28.1026L14.9943 26.8799C16.1351 26.4885 17.1393 25.7775 17.8873 24.8316Z" fill="#FFCDAC"/>
<path d="M7.43645 32.5358L0.201111 25.3004C-0.0670371 25.0322 -0.0670371 24.5975 0.201111 24.3294L1.47439 23.0561C1.74254 22.7879 2.17723 22.7879 2.44538 23.0561L9.68079 30.2915C9.94894 30.5596 9.94894 30.9943 9.68079 31.2625L8.40751 32.5357C8.13936 32.8039 7.70459 32.8039 7.43645 32.5358Z" fill="#464C50"/>
<path d="M9.6807 30.2915L7.22669 27.8375L4.98242 30.0818L7.43643 32.5358C7.70458 32.804 8.13927 32.804 8.40742 32.5358L9.68062 31.2626C9.94885 30.9944 9.94885 30.5597 9.6807 30.2915Z" fill="#33393A"/>
<path d="M24.8859 16.9673C24.1729 16.2543 23.0168 16.2543 22.3038 16.9673L21.4926 17.7785C21.1255 18.1456 21.1255 18.7407 21.4926 19.1078L22.3088 19.924L25.0757 17.1572L24.8859 16.9673Z" fill="#EFEFEF"/>
<path d="M51.6695 22.108C50.8895 22.108 50.1995 22.018 49.5995 21.838C49.0115 21.658 48.5135 21.328 48.1055 20.848C47.7095 20.368 47.4095 19.684 47.2055 18.796C47.0015 17.908 46.8995 16.744 46.8995 15.304C46.8995 13.948 47.0015 12.832 47.2055 11.956C47.4215 11.08 47.7335 10.396 48.1415 9.904C48.5615 9.412 49.0715 9.07 49.6715 8.878C50.2715 8.686 50.9555 8.59 51.7235 8.59C52.2515 8.59 52.7615 8.62 53.2535 8.68C53.7575 8.74 54.2195 8.812 54.6395 8.896C55.0715 8.98 55.4435 9.07 55.7555 9.166V10.876C55.5515 10.828 55.2635 10.786 54.8915 10.75C54.5195 10.702 54.0995 10.666 53.6315 10.642C53.1635 10.606 52.6775 10.588 52.1735 10.588C51.6215 10.588 51.1475 10.654 50.7515 10.786C50.3675 10.906 50.0555 11.134 49.8155 11.47C49.5755 11.806 49.4015 12.286 49.2935 12.91C49.1855 13.534 49.1315 14.344 49.1315 15.34C49.1315 16.324 49.1795 17.128 49.2755 17.752C49.3835 18.376 49.5455 18.862 49.7615 19.21C49.9895 19.546 50.2955 19.78 50.6795 19.912C51.0755 20.044 51.5675 20.11 52.1555 20.11C53.0555 20.11 53.7935 20.092 54.3695 20.056C54.9455 20.008 55.4075 19.96 55.7555 19.912V21.622C55.4195 21.718 55.0355 21.802 54.6035 21.874C54.1835 21.946 53.7275 22 53.2355 22.036C52.7555 22.084 52.2335 22.108 51.6695 22.108ZM59.6432 22.108C58.9232 22.108 58.3352 21.892 57.8792 21.46C57.4232 21.028 57.1952 20.434 57.1952 19.678V18.868C57.1952 18.124 57.4472 17.518 57.9512 17.05C58.4672 16.582 59.2532 16.348 60.3092 16.348H63.0632V15.502C63.0632 15.166 63.0032 14.884 62.8832 14.656C62.7632 14.428 62.5472 14.26 62.2352 14.152C61.9232 14.032 61.4492 13.972 60.8132 13.972H57.8972V12.676C58.3412 12.556 58.8632 12.454 59.4632 12.37C60.0632 12.274 60.7772 12.226 61.6052 12.226C62.3972 12.214 63.0692 12.31 63.6212 12.514C64.1732 12.706 64.5872 13.03 64.8632 13.486C65.1512 13.942 65.2952 14.566 65.2952 15.358V22H63.5492L63.1712 20.956C63.0872 21.028 62.9372 21.124 62.7212 21.244C62.5052 21.364 62.2352 21.496 61.9112 21.64C61.5872 21.772 61.2272 21.886 60.8312 21.982C60.4472 22.066 60.0512 22.108 59.6432 22.108ZM60.7232 20.542C60.8792 20.542 61.0532 20.524 61.2452 20.488C61.4492 20.44 61.6532 20.392 61.8572 20.344C62.0612 20.284 62.2472 20.23 62.4152 20.182C62.5952 20.122 62.7392 20.068 62.8472 20.02C62.9672 19.972 63.0392 19.942 63.0632 19.93V17.41L60.9752 17.518C60.4232 17.566 60.0212 17.71 59.7692 17.95C59.5292 18.19 59.4092 18.508 59.4092 18.904V19.3C59.4092 19.6 59.4692 19.846 59.5892 20.038C59.7212 20.218 59.8832 20.344 60.0752 20.416C60.2792 20.488 60.4952 20.53 60.7232 20.542ZM70.9626 22.108C70.6866 22.108 70.3686 22.096 70.0086 22.072C69.6606 22.06 69.3066 22.036 68.9466 22C68.5986 21.976 68.2746 21.94 67.9746 21.892C67.6746 21.844 67.4286 21.79 67.2366 21.73V20.416H71.3946C71.6946 20.416 71.9466 20.392 72.1506 20.344C72.3666 20.296 72.5286 20.2 72.6366 20.056C72.7446 19.912 72.7986 19.696 72.7986 19.408V19.066C72.7986 18.766 72.6966 18.532 72.4926 18.364C72.3006 18.184 71.9586 18.094 71.4666 18.094H70.0086C69.4446 18.094 68.9406 18.016 68.4966 17.86C68.0646 17.704 67.7226 17.44 67.4706 17.068C67.2186 16.696 67.0926 16.192 67.0926 15.556V15.016C67.0926 14.404 67.2066 13.9 67.4346 13.504C67.6746 13.096 68.0646 12.79 68.6046 12.586C69.1566 12.37 69.8886 12.262 70.8006 12.262C71.1846 12.262 71.5986 12.28 72.0426 12.316C72.4866 12.352 72.9126 12.4 73.3206 12.46C73.7286 12.508 74.0526 12.568 74.2926 12.64V13.954H70.3686C69.9246 13.954 69.5826 14.032 69.3426 14.188C69.1146 14.332 69.0006 14.608 69.0006 15.016V15.358C69.0006 15.622 69.0546 15.82 69.1626 15.952C69.2706 16.084 69.4326 16.174 69.6486 16.222C69.8646 16.27 70.1226 16.294 70.4226 16.294H71.9166C72.8646 16.294 73.5666 16.51 74.0226 16.942C74.4786 17.374 74.7066 17.986 74.7066 18.778V19.57C74.7066 20.218 74.5566 20.728 74.2566 21.1C73.9566 21.472 73.5246 21.736 72.9606 21.892C72.4086 22.036 71.7426 22.108 70.9626 22.108ZM76.5593 22V8.284H78.7913V13.36C79.1753 13.072 79.6553 12.808 80.2313 12.568C80.8193 12.316 81.4193 12.19 82.0313 12.19C82.7393 12.19 83.3093 12.334 83.7413 12.622C84.1853 12.91 84.5033 13.312 84.6953 13.828C84.8993 14.332 85.0013 14.908 85.0013 15.556V22H82.7693V15.826C82.7693 15.49 82.7033 15.202 82.5713 14.962C82.4393 14.71 82.2533 14.524 82.0133 14.404C81.7733 14.272 81.4913 14.206 81.1673 14.206C80.8553 14.206 80.5673 14.242 80.3033 14.314C80.0393 14.374 79.7813 14.464 79.5293 14.584C79.2893 14.704 79.0433 14.842 78.7913 14.998V22H76.5593Z" fill="#4EAD4E"/>
<path d="M87.3372 22V8.716H92.8272C93.2472 8.716 93.6732 8.77 94.1052 8.878C94.5372 8.974 94.9332 9.172 95.2932 9.472C95.6652 9.772 95.9592 10.216 96.1752 10.804C96.4032 11.392 96.5172 12.178 96.5172 13.162C96.5172 14.146 96.4032 14.938 96.1752 15.538C95.9472 16.138 95.6472 16.6 95.2752 16.924C94.9152 17.236 94.5192 17.452 94.0872 17.572C93.6672 17.68 93.2592 17.734 92.8632 17.734C92.6592 17.734 92.4012 17.728 92.0892 17.716C91.7892 17.692 91.4712 17.668 91.1352 17.644C90.8112 17.608 90.5052 17.578 90.2172 17.554C89.9412 17.518 89.7192 17.488 89.5512 17.464V22H87.3372ZM89.5512 15.718H92.5392C92.8872 15.718 93.1932 15.64 93.4572 15.484C93.7212 15.316 93.9252 15.052 94.0692 14.692C94.2132 14.32 94.2852 13.816 94.2852 13.18C94.2852 12.556 94.2072 12.064 94.0512 11.704C93.9072 11.344 93.7092 11.092 93.4572 10.948C93.2172 10.792 92.9352 10.714 92.6112 10.714H89.5512V15.718ZM100.301 22.108C99.5814 22.108 98.9934 21.892 98.5374 21.46C98.0814 21.028 97.8534 20.434 97.8534 19.678V18.868C97.8534 18.124 98.1054 17.518 98.6094 17.05C99.1254 16.582 99.9114 16.348 100.967 16.348H103.721V15.502C103.721 15.166 103.661 14.884 103.541 14.656C103.421 14.428 103.205 14.26 102.893 14.152C102.581 14.032 102.107 13.972 101.471 13.972H98.5554V12.676C98.9994 12.556 99.5214 12.454 100.121 12.37C100.721 12.274 101.435 12.226 102.263 12.226C103.055 12.214 103.727 12.31 104.279 12.514C104.831 12.706 105.245 13.03 105.521 13.486C105.809 13.942 105.953 14.566 105.953 15.358V22H104.207L103.829 20.956C103.745 21.028 103.595 21.124 103.379 21.244C103.163 21.364 102.893 21.496 102.569 21.64C102.245 21.772 101.885 21.886 101.489 21.982C101.105 22.066 100.709 22.108 100.301 22.108ZM101.381 20.542C101.537 20.542 101.711 20.524 101.903 20.488C102.107 20.44 102.311 20.392 102.515 20.344C102.719 20.284 102.905 20.23 103.073 20.182C103.253 20.122 103.397 20.068 103.505 20.02C103.625 19.972 103.697 19.942 103.721 19.93V17.41L101.633 17.518C101.081 17.566 100.679 17.71 100.427 17.95C100.187 18.19 100.067 18.508 100.067 18.904V19.3C100.067 19.6 100.127 19.846 100.247 20.038C100.379 20.218 100.541 20.344 100.733 20.416C100.937 20.488 101.153 20.53 101.381 20.542ZM111.045 26.266L112.161 22C111.693 22 111.267 21.91 110.883 21.73C110.511 21.55 110.193 21.28 109.929 20.92C109.665 20.56 109.449 20.098 109.281 19.534L107.301 12.352H109.605L111.351 19.084C111.435 19.36 111.537 19.57 111.657 19.714C111.777 19.858 111.897 19.966 112.017 20.038C112.137 20.098 112.245 20.134 112.341 20.146C112.449 20.158 112.521 20.164 112.557 20.164L114.555 12.352H116.823L113.727 24.484L112.863 26.266H111.045Z" fill="#011F3B"/>
</svg>
